<?xml version="1.0" encoding="UTF-8" standalone="no"?>
<!DOCTYPE svg PUBLIC "-//W3C//DTD SVG 1.1//EN" "http://www.w3.org/Graphics/SVG/1.1/DTD/svg11.dtd">
<svg width="100%" height="100%" viewBox="0 0 95 50" version="1.1" xmlns="http://www.w3.org/2000/svg" xmlns:xlink="http://www.w3.org/1999/xlink" xml:space="preserve" style="fill-rule:evenodd;clip-rule:evenodd;stroke-linejoin:round;stroke-miterlimit:1.41421;">
    <path id="face" d="M71.586,30.152C76.756,30.119 85.119,36.735 83.207,42.358C81.941,46.081 84.071,37.604 70.939,37.707C59.749,37.795 52.127,43.721 33.655,42.761C29.952,45.532 25.261,47.013 20.294,46.602C9.505,45.709 1.471,36.225 2.364,25.436C3.257,14.647 12.742,6.613 23.531,7.506C31.473,8.163 37.923,13.477 40.417,20.539C40.835,23.107 42.001,25.509 43.732,27.563C40.126,29.274 36.897,27.743 36.888,28.447C36.811,34.606 53.001,36.1 62.24,34.646C65.853,34.077 69.096,32.445 71.586,30.152L71.586,30.152ZM33.669,18.772C33.706,18.015 33.183,17.066 31.778,16.279C23.922,11.884 18.611,15.395 18.611,15.395C18.611,15.395 23.049,14.804 27.616,17.39C20.98,18.727 18.908,23.208 18.908,23.208C18.908,23.208 23.845,19.167 30.853,20.391C32.701,20.714 33.72,19.749 33.669,18.772L33.669,18.772Z" style="fill:white;fill-rule:nonzero;"/>
    <path id="speech-bubble" d="M43.732,27.563C41.295,24.671 39.978,21.09 40.29,17.328C40.992,8.85 49.695,2.641 59.714,3.47C69.732,4.3 77.296,11.856 76.595,20.333C76.015,27.337 69.973,33.429 62.24,34.646C53.001,36.1 36.811,34.606 36.888,28.447C36.897,27.743 40.126,29.274 43.732,27.563L43.732,27.563Z" style="fill:black;fill-opacity:0;fill-rule:nonzero;stroke-width:3px;stroke:white;"/>
    <g id="drops">
        <path id="drop-2" d="M86.15,36.849C86.15,36.849 91.332,39.879 92.199,42.312C94.016,47.411 87.575,47.956 88.099,44.363C88.494,41.649 86.15,36.849 86.15,36.849L86.15,36.849Z" style="fill:white;fill-rule:nonzero;"/>
        <path id="drop-1" d="M80.664,30.411C80.664,30.411 84.228,28.361 86.039,28.449C88.78,28.583 90.454,31.827 87.534,32.495C85.711,32.912 80.664,30.411 80.664,30.411L80.664,30.411Z" style="fill:white;fill-rule:nonzero;"/>
        <path id="drop-3" d="M77.899,42.429C77.899,42.429 79.415,44.804 79.411,46.046C79.406,47.927 77.239,49.175 76.689,47.198C76.346,45.963 77.899,42.429 77.899,42.429Z" style="fill:white;fill-rule:nonzero;"/>
    </g>
</svg>
